# xmcd
#
# Track frame offsets:
#  150
#  21200
#  41275
#  60553
#  79632
#  99758
#  132619
#  151268
#  170636
#  186384
#  213398
#
# Disc length: 2963 seconds
#
# Revision: 0
# Processed by: cddbd v1.4PL0 Copyright (c) Steve Scherf et al.
# Submitted via: AltoMP3_Maker 3.0
#
DISCID=8b0b910b
DTITLE=Larry Joe Taylor - First Row, Third Coast
DYEAR=1900
DGENRE=
TTITLE0=American Dream
TTITLE1=My Home
TTITLE2=Coastin
TTITLE3=Mobile Bay
TTITLE4=Fishin Song
TTITLE5=Third Coast
TTITLE6=Rainy Days
TTITLE7=Brooksmith Texas
TTITLE8=Road Trip
TTITLE9=Uncle Bud
TTITLE10=Voice Skit
EXTD=
EXTT0=
EXTT1=
EXTT2=
EXTT3=
EXTT4=
EXTT5=
EXTT6=
EXTT7=
EXTT8=
EXTT9=
EXTT10=
PLAYORDER=
